<?xml version="1.0" encoding="UTF-8" standalone="no"?>
<svg width="302px" height="301px" viewBox="0 0 302 301" version="1.1" xmlns="http://www.w3.org/2000/svg" xmlns:xlink="http://www.w3.org/1999/xlink" xmlns:sketch="http://www.bohemiancoding.com/sketch/ns">
    <!-- Generator: Sketch 3.3.3 (12081) - http://www.bohemiancoding.com/sketch -->
    <title>neweramabs-logo</title>
    <desc>Created with Sketch.</desc>
    <defs></defs>
    <g id="visitenkarte---dark-green-logo" stroke="none" stroke-width="1" fill="none" fill-rule="evenodd" sketch:type="MSPage">
        <g id="Rectangle-1-+-Group" sketch:type="MSLayerGroup" transform="translate(-1345.000000, -1646.000000)" stroke="#FFFFFF">
            <g id="Group" transform="translate(1357.000000, 1657.000000)" sketch:type="MSShapeGroup">
                <g id="neweramabs-logo">
                    <path d="M139.222568,278.103125 C62.4218141,278.103125 0.162501832,215.920332 0.162501832,139.213969 C0.162501832,62.5076068 62.4218141,0.324813772 139.222568,0.324813772 C216.023322,0.324813772 278.282634,62.5076068 278.282634,139.213969 C278.282634,215.920332 216.023322,278.103125 139.222568,278.103125 Z" id="use3872" stroke-width="22.4608565"></path>
                    <path d="M14.4782849,69.220641 C42.8254713,73.8997087 68.3868092,84.642078 93.7149673,92.6776655 C110.404423,99.9001086 128.170244,111.987009 131.178986,131.599697 C135.195051,157.263703 124.747405,182.136269 115.863963,205.595793 C108.385768,224.462417 100.020273,242.949622 92.3801327,261.7475" id="use3874" stroke-width="22.4858397"></path>
                    <path d="M145.96206,226.574087 C144.768672,209.560104 136.604583,191.449606 142.236007,171.503834 C148.235404,146.750688 176.70734,123.615808 201.496115,118.108033 C217.953275,113.299975 231.462104,112.901243 252.677464,108.996076 C254.941628,108.868378 269.037954,106.462431 271.301496,106.60753" id="use3876" stroke-width="22.4858397" stroke-linecap="round"></path>
                    <path d="M98.5955692,60.6275189 C113.701502,79.6091623 131.691238,97.6647573 154.597046,106.381786 C171.143275,110.315109 188.388486,104.610025 202.22668,95.3651672 C208.260631,91.7390555 214.159041,87.8738799 220.348904,84.5203937" id="use3878" stroke-width="22.4858397" stroke-linecap="round"></path>
                </g>
            </g>
        </g>
    </g>
</svg>